<svg id="svg" version="1.1" xmlns="http://www.w3.org/2000/svg" xmlns:xlink="http://www.w3.org/1999/xlink" width="400" height="400" viewBox="0, 0, 400,400"><g id="svgg"><path id="path0" d="M198.800 38.282 C 197.355 38.811,196.304 40.407,194.795 44.365 C 191.812 52.190,191.465 52.981,188.472 58.800 C 184.131 67.236,181.496 71.342,177.818 75.400 C 176.023 77.380,174.173 79.502,173.707 80.116 C 173.241 80.730,171.271 82.617,169.330 84.310 C 167.388 86.002,164.720 88.481,163.400 89.818 C 162.080 91.155,160.151 92.919,159.114 93.739 C 156.332 95.939,145.057 107.289,143.251 109.709 C 142.392 110.859,140.700 112.854,139.489 114.143 C 135.462 118.432,135.440 118.308,140.824 121.597 C 144.224 123.674,144.478 123.640,146.551 120.824 C 150.298 115.734,157.293 108.459,165.996 100.600 C 174.450 92.966,185.648 81.726,187.315 79.200 C 188.113 77.990,189.395 76.280,190.164 75.400 C 191.522 73.845,198.400 61.406,198.400 60.504 C 198.400 59.975,200.896 55.163,201.077 55.344 C 201.145 55.412,201.978 57.348,202.927 59.646 C 203.877 61.945,205.497 65.324,206.527 67.156 C 207.557 68.988,208.400 70.568,208.400 70.667 C 208.400 72.670,224.451 91.031,230.185 95.588 C 231.854 96.915,239.507 104.008,243.361 107.801 C 248.546 112.904,252.462 117.300,255.710 121.662 C 257.568 124.158,259.563 126.740,260.143 127.399 C 260.722 128.059,261.423 129.049,261.699 129.599 C 261.976 130.150,263.228 132.400,264.481 134.600 C 265.734 136.800,267.431 140.220,268.251 142.200 C 269.071 144.180,269.870 145.890,270.025 146.000 C 270.520 146.349,272.809 154.262,273.805 159.065 C 277.116 175.032,276.044 186.819,269.992 201.000 C 269.804 201.440,269.525 202.250,269.372 202.800 C 267.872 208.196,260.322 216.206,247.934 225.546 C 244.120 228.421,239.650 232.035,238.000 233.577 C 236.350 235.119,234.742 236.385,234.426 236.390 C 234.110 236.396,233.463 236.765,232.989 237.210 L 232.127 238.021 231.201 234.510 C 230.693 232.580,230.142 230.730,229.979 230.400 C 229.815 230.070,228.827 227.100,227.783 223.800 C 225.826 217.615,221.110 205.967,220.191 205.049 C 219.906 204.763,218.769 202.745,217.665 200.565 C 215.612 196.510,211.633 190.068,208.375 185.523 L 206.550 182.977 208.375 180.713 C 211.667 176.628,218.945 168.960,222.809 165.504 C 224.894 163.640,227.410 161.354,228.400 160.424 C 232.759 156.330,246.714 145.458,251.401 142.504 C 252.502 141.811,253.762 140.910,254.201 140.502 C 255.346 139.440,259.887 136.400,260.329 136.400 C 261.805 136.400,261.562 135.175,259.479 132.116 C 258.295 130.377,257.127 128.605,256.884 128.177 C 256.348 127.236,256.818 126.985,248.337 132.742 C 239.137 138.987,231.557 144.901,226.419 149.841 C 223.879 152.284,219.452 156.449,216.583 159.096 C 212.270 163.074,205.099 170.602,201.240 175.200 C 200.453 176.137,200.366 176.156,199.856 175.499 C 194.830 169.036,174.234 148.786,167.800 143.981 C 165.380 142.174,162.860 140.218,162.200 139.634 C 160.866 138.454,159.178 137.256,152.412 132.682 C 145.029 127.691,141.485 125.385,140.200 124.737 C 138.717 123.988,136.810 122.888,134.200 121.274 C 130.354 118.897,123.769 115.417,120.000 113.770 C 117.910 112.857,114.622 111.365,112.694 110.455 C 98.385 103.706,79.137 99.007,75.689 101.423 C 73.658 102.845,74.694 105.200,79.353 109.752 C 89.409 119.578,90.331 129.074,84.603 163.800 C 82.635 175.728,80.871 187.361,80.568 190.410 L 80.308 193.020 84.054 193.917 C 89.523 195.225,89.243 195.339,89.752 191.600 C 89.856 190.830,90.669 185.790,91.558 180.400 C 96.241 151.993,96.305 151.574,97.012 144.624 C 98.147 133.470,97.605 123.826,95.465 117.087 C 94.926 115.389,94.632 114.000,94.811 114.000 C 95.798 114.000,110.369 119.498,110.800 120.033 C 110.910 120.170,113.250 121.331,116.000 122.613 C 118.750 123.896,122.911 125.992,125.248 127.272 C 127.584 128.553,129.699 129.600,129.948 129.600 C 130.196 129.600,130.400 129.764,130.400 129.965 C 130.400 130.166,131.615 131.038,133.100 131.903 C 139.612 135.696,145.497 139.450,146.200 140.261 C 146.420 140.515,147.860 141.524,149.400 142.504 C 152.877 144.716,157.535 148.206,163.941 153.400 C 166.654 155.600,169.365 157.760,169.964 158.200 C 170.563 158.640,172.391 160.286,174.027 161.858 C 175.662 163.429,178.028 165.589,179.285 166.658 C 181.685 168.697,190.367 177.983,192.857 181.173 L 194.314 183.039 193.105 184.620 C 190.240 188.366,185.344 196.210,182.679 201.325 C 181.096 204.364,179.488 207.433,179.106 208.144 C 176.967 212.129,172.383 224.874,170.813 231.200 C 170.568 232.190,170.202 233.360,170.000 233.800 C 169.798 234.240,169.434 235.382,169.191 236.339 C 168.776 237.967,168.704 238.037,168.042 237.438 C 167.653 237.086,167.222 236.911,167.085 237.049 C 166.947 237.186,165.162 235.733,163.117 233.819 C 161.073 231.905,156.611 228.237,153.203 225.669 C 143.817 218.598,138.096 212.696,133.909 205.767 C 132.511 203.453,130.968 199.206,131.522 199.194 C 131.675 199.191,131.620 199.056,131.400 198.894 C 127.991 196.389,125.277 180.166,126.375 168.857 C 127.026 162.156,129.035 152.206,129.982 151.000 C 130.155 150.780,130.527 149.880,130.810 149.000 C 131.536 146.742,133.892 140.924,134.914 138.867 L 135.774 137.135 134.787 136.376 C 133.765 135.591,128.663 132.800,128.248 132.800 C 127.135 132.800,121.356 147.806,119.622 155.200 C 115.279 173.717,116.769 190.281,124.081 204.797 C 125.577 207.765,126.800 210.252,126.800 210.323 C 126.800 210.651,124.833 209.809,123.200 208.782 C 120.448 207.052,109.642 203.495,99.600 201.015 C 98.170 200.661,96.640 200.200,96.200 199.990 C 95.372 199.593,87.213 197.630,83.000 196.814 C 80.188 196.269,67.048 193.469,63.000 192.553 C 59.459 191.751,54.842 190.471,53.800 190.003 C 53.360 189.805,51.560 189.082,49.800 188.397 C 44.527 186.344,39.063 182.447,37.287 179.474 C 35.561 176.582,32.795 174.000,31.425 174.000 C 28.442 174.000,27.782 176.484,27.862 187.400 C 28.096 219.371,33.192 254.207,39.798 269.000 C 40.093 269.660,41.414 272.720,42.734 275.800 C 44.957 280.987,48.070 287.025,49.675 289.260 C 50.046 289.777,51.915 292.540,53.830 295.400 C 57.822 301.364,58.124 301.768,60.698 304.582 C 61.744 305.726,63.230 307.452,64.000 308.418 C 67.162 312.386,77.167 321.866,82.800 326.232 C 85.330 328.192,87.580 329.999,87.800 330.246 C 88.437 330.961,98.382 337.342,100.768 338.566 C 101.960 339.178,103.220 339.964,103.568 340.313 C 104.096 340.843,108.669 343.112,113.800 345.391 C 116.024 346.379,119.783 347.870,122.400 348.803 C 123.830 349.313,125.201 349.884,125.448 350.071 C 132.888 355.728,192.667 364.629,199.428 361.087 C 200.437 360.558,200.670 360.558,201.480 361.089 C 203.557 362.450,229.151 361.576,233.000 360.014 C 233.440 359.835,235.510 359.474,237.600 359.212 C 248.354 357.862,274.591 351.530,275.590 350.043 C 275.706 349.871,277.330 349.178,279.200 348.501 C 286.234 345.958,296.931 341.019,297.600 340.007 C 297.710 339.841,298.760 339.220,299.934 338.628 C 301.108 338.036,304.168 336.205,306.734 334.559 C 311.010 331.817,312.098 331.024,315.768 327.977 C 316.446 327.415,318.170 326.078,319.600 325.008 C 322.951 322.499,333.505 312.451,335.785 309.600 C 336.752 308.390,338.574 306.320,339.833 305.000 C 341.092 303.680,342.726 301.700,343.464 300.600 C 344.202 299.500,346.525 296.080,348.626 293.000 C 352.687 287.048,354.423 284.030,356.568 279.200 C 357.301 277.550,358.451 275.030,359.123 273.600 C 363.315 264.684,366.924 251.347,368.973 237.200 C 369.340 234.670,369.800 232.060,369.996 231.400 C 371.542 226.207,373.764 185.990,372.853 179.695 C 371.742 172.009,368.630 171.863,363.662 179.264 C 361.318 182.757,356.230 186.451,351.095 188.389 C 349.283 189.073,347.440 189.793,347.000 189.988 C 344.909 190.916,333.136 193.776,326.296 195.018 C 325.468 195.168,324.696 195.444,324.581 195.631 C 324.344 196.014,325.137 204.471,325.437 204.771 C 325.846 205.179,346.132 200.692,347.000 200.002 C 347.220 199.827,348.750 199.289,350.400 198.807 C 353.913 197.781,360.495 195.013,362.165 193.859 L 363.329 193.054 363.083 200.827 C 362.469 220.265,359.154 243.661,355.239 256.200 C 354.827 257.520,354.126 259.770,353.681 261.200 C 350.010 272.992,343.167 285.139,332.629 298.567 C 331.543 299.952,324.296 307.676,320.981 310.984 C 316.727 315.228,305.084 324.257,299.800 327.409 C 298.260 328.328,296.120 329.677,295.043 330.406 C 292.730 331.975,285.459 335.588,281.252 337.259 C 279.613 337.910,276.996 339.038,275.436 339.766 C 267.990 343.241,250.887 347.554,232.400 350.619 C 228.017 351.346,227.070 351.367,228.195 350.715 C 228.633 350.461,229.173 350.107,229.395 349.927 C 229.618 349.747,230.970 348.997,232.400 348.260 C 240.258 344.207,241.600 343.437,241.600 342.975 C 241.600 342.697,242.815 341.791,244.300 340.962 C 289.569 315.706,320.296 267.230,321.477 219.200 C 321.605 214.030,321.846 209.710,322.013 209.600 C 322.593 209.219,320.799 188.874,320.020 187.000 C 319.837 186.560,319.315 183.680,318.859 180.600 C 318.403 177.520,317.142 169.420,316.056 162.600 C 312.961 143.161,313.013 143.653,313.007 134.000 C 312.998 121.525,314.605 116.289,319.940 111.400 C 326.657 105.245,327.210 104.487,326.639 102.214 C 325.325 96.977,301.331 103.599,275.700 116.273 C 269.831 119.175,269.869 119.122,271.700 121.871 C 272.415 122.945,273.235 124.268,273.522 124.812 C 274.936 127.486,274.773 127.466,278.875 125.481 C 293.467 118.421,296.946 116.903,303.326 114.811 C 306.497 113.772,306.605 113.811,305.813 115.706 C 301.677 125.606,302.252 139.202,308.287 174.200 C 313.892 206.706,314.342 227.057,309.794 242.400 C 309.501 243.390,308.587 246.540,307.762 249.400 C 304.980 259.056,302.455 264.996,296.744 275.323 C 294.795 278.848,293.187 281.837,293.170 281.966 C 293.154 282.095,292.359 283.280,291.405 284.600 C 290.450 285.920,288.804 288.260,287.747 289.800 C 278.060 303.911,262.455 318.962,248.649 327.513 C 247.128 328.455,245.235 329.737,244.442 330.363 C 241.686 332.538,225.521 341.268,215.200 346.154 C 206.883 350.092,203.494 352.249,201.670 354.767 C 200.448 356.453,200.187 356.437,199.017 354.600 C 197.389 352.046,192.865 349.412,179.800 343.408 C 178.260 342.701,175.590 341.284,173.867 340.261 C 172.144 339.237,170.630 338.400,170.504 338.400 C 170.377 338.400,168.068 337.140,165.372 335.600 C 162.677 334.060,160.320 332.790,160.136 332.778 C 159.951 332.766,158.810 332.059,157.600 331.206 C 156.390 330.353,154.176 328.878,152.679 327.928 C 137.869 318.523,121.992 303.118,112.559 289.000 C 111.383 287.240,109.781 284.900,108.998 283.800 C 108.215 282.700,106.651 280.090,105.522 278.000 C 104.393 275.910,103.115 273.570,102.681 272.800 C 97.015 262.727,92.470 249.856,89.563 235.649 C 88.814 231.984,88.000 222.202,88.000 216.851 L 88.000 211.280 85.900 210.787 C 84.745 210.516,83.530 210.159,83.200 209.994 C 82.870 209.828,81.808 209.562,80.840 209.401 L 79.081 209.110 79.327 218.655 C 80.594 267.656,109.197 312.899,156.700 341.037 C 158.515 342.112,160.001 343.173,160.003 343.396 C 160.007 343.841,161.414 344.664,167.400 347.720 C 174.385 351.286,174.485 351.574,168.400 350.607 C 151.742 347.959,129.483 342.349,125.400 339.768 C 124.960 339.490,122.890 338.594,120.800 337.776 C 115.494 335.701,107.992 331.926,104.200 329.423 C 102.440 328.261,99.762 326.529,98.249 325.575 C 92.348 321.853,82.033 313.263,76.425 307.402 C 74.321 305.203,71.829 302.593,70.886 301.602 C 68.851 299.462,63.453 292.591,61.421 289.554 C 60.628 288.369,59.319 286.410,58.512 285.200 C 57.000 282.934,53.310 275.837,50.712 270.200 C 45.742 259.416,42.849 247.748,39.604 225.400 C 38.940 220.827,37.057 193.880,37.364 193.336 C 37.384 193.301,39.153 194.134,41.296 195.187 C 43.438 196.240,47.038 197.686,49.296 198.401 C 51.553 199.115,53.580 199.835,53.800 200.000 C 54.362 200.423,63.069 202.480,73.200 204.583 C 84.242 206.876,96.543 209.699,96.800 209.999 C 96.910 210.127,99.160 210.827,101.800 211.553 C 111.207 214.141,124.884 218.913,126.390 220.133 C 126.726 220.405,128.350 221.251,130.000 222.014 C 131.650 222.776,134.499 224.255,136.332 225.300 C 138.164 226.345,139.751 227.200,139.859 227.200 C 140.112 227.200,143.735 229.662,144.000 230.013 C 144.110 230.158,146.090 231.635,148.400 233.294 C 157.077 239.525,167.076 249.679,166.580 251.756 C 166.182 253.424,166.054 276.700,166.435 277.986 C 166.601 278.544,167.307 281.160,168.003 283.800 C 172.591 301.187,177.157 311.048,186.452 323.644 C 188.175 325.979,189.858 328.116,190.192 328.393 C 190.526 328.671,190.800 329.198,190.800 329.564 C 190.800 332.055,196.062 335.103,200.400 335.125 C 204.754 335.148,210.400 331.776,210.400 329.153 C 210.400 328.793,210.664 328.279,210.986 328.011 C 216.539 323.403,227.420 303.363,231.843 289.600 C 234.402 281.634,235.564 265.590,234.390 254.435 C 233.941 250.177,233.882 250.340,237.076 246.970 C 239.707 244.194,247.130 237.199,248.600 236.110 C 249.260 235.621,251.150 234.234,252.800 233.028 C 254.450 231.822,256.299 230.423,256.910 229.918 C 258.546 228.565,267.286 223.630,271.200 221.849 C 273.070 220.998,274.690 220.179,274.800 220.030 C 275.264 219.399,287.035 215.022,292.600 213.412 C 293.920 213.030,296.354 212.302,298.010 211.794 C 299.665 211.286,301.690 210.744,302.510 210.591 C 303.329 210.437,304.000 210.184,304.000 210.029 C 304.000 209.874,305.188 209.511,306.639 209.222 L 309.279 208.697 309.011 204.649 C 308.625 198.815,307.932 198.102,304.483 199.988 C 304.107 200.194,301.010 201.097,297.600 201.995 C 294.190 202.894,290.950 203.780,290.400 203.966 C 289.850 204.151,287.510 204.902,285.200 205.634 C 282.890 206.366,280.460 207.360,279.800 207.843 C 278.516 208.783,275.576 210.109,275.327 209.860 C 275.244 209.778,276.246 207.660,277.552 205.155 C 287.077 186.891,286.594 160.669,276.318 138.084 C 274.988 135.160,273.999 132.668,274.121 132.546 C 274.451 132.215,271.346 126.603,269.413 124.040 C 268.485 122.808,267.048 120.732,266.221 119.427 C 264.724 117.066,260.600 111.764,260.075 111.525 C 259.924 111.456,258.596 109.960,257.124 108.200 C 254.361 104.895,248.295 98.810,243.400 94.433 C 233.712 85.769,226.521 78.680,223.081 74.400 C 221.755 72.750,220.474 71.220,220.235 71.000 C 218.942 69.811,214.626 62.064,212.167 56.521 C 211.113 54.144,210.133 52.110,209.990 52.000 C 209.846 51.890,208.877 49.563,207.835 46.829 C 204.616 38.376,202.924 36.775,198.800 38.282 M232.600 106.800 C 233.683 107.900,234.660 108.800,234.770 108.800 C 234.880 108.800,234.083 107.900,233.000 106.800 C 231.917 105.700,230.940 104.800,230.830 104.800 C 230.720 104.800,231.517 105.700,232.600 106.800 M203.472 195.400 C 204.356 196.720,205.671 198.880,206.394 200.200 C 208.722 204.447,209.755 206.195,210.064 206.413 C 212.343 208.020,221.463 233.448,223.179 242.979 L 223.968 247.359 222.171 249.979 C 221.183 251.421,219.593 253.680,218.639 255.000 C 216.387 258.115,213.220 264.025,208.885 273.200 C 207.031 277.124,203.814 286.749,201.921 294.031 C 200.538 299.352,200.172 299.627,199.397 295.927 C 198.467 291.487,194.814 280.002,192.463 274.128 C 190.119 268.271,182.095 253.976,180.018 251.958 C 179.655 251.605,178.781 250.417,178.076 249.318 L 176.794 247.320 177.423 243.960 C 178.069 240.507,179.447 234.666,179.868 233.600 C 179.998 233.270,181.144 229.940,182.415 226.200 C 185.784 216.285,188.285 210.649,192.179 204.200 C 193.374 202.220,194.363 200.460,194.376 200.288 C 194.413 199.808,199.642 191.835,200.118 191.534 C 200.578 191.242,201.065 191.804,203.472 195.400 M225.423 267.500 C 224.793 279.042,222.890 289.077,220.225 294.910 C 219.700 296.059,218.541 298.658,217.650 300.684 C 215.157 306.354,212.033 311.843,209.066 315.766 L 206.369 319.333 206.621 317.566 C 207.447 311.779,209.399 301.881,209.968 300.600 C 210.164 300.160,210.982 297.370,211.786 294.400 C 214.789 283.311,218.766 273.681,223.886 265.100 C 225.705 262.050,225.719 262.071,225.423 267.500 M177.811 266.500 C 182.020 273.825,184.914 280.697,187.790 290.200 C 188.590 292.840,189.586 295.990,190.005 297.200 C 191.278 300.873,194.698 318.236,194.239 318.694 C 193.363 319.571,184.508 304.446,181.772 297.400 C 180.918 295.200,180.094 293.308,179.940 293.195 C 178.117 291.858,174.064 263.200,175.698 263.200 C 175.817 263.200,176.768 264.685,177.811 266.500 M252.800 302.600 C 251.828 303.590,251.123 304.400,251.233 304.400 C 251.343 304.400,252.228 303.590,253.200 302.600 C 254.172 301.610,254.877 300.800,254.767 300.800 C 254.657 300.800,253.772 301.610,252.800 302.600 " stroke="none" fill="#040404" fill-rule="evenodd"></path><path id="path1" d="M199.600 74.106 C 199.050 75.258,198.375 76.438,198.100 76.729 C 197.825 77.019,197.600 77.503,197.600 77.804 C 197.600 79.419,188.007 89.889,181.478 95.400 C 175.331 100.589,158.400 117.464,158.400 118.402 C 158.400 118.599,158.147 118.904,157.839 119.080 C 153.835 121.362,154.976 128.877,160.043 133.600 C 160.397 133.930,161.927 135.555,163.443 137.212 C 164.959 138.868,167.910 142.089,170.000 144.371 C 172.090 146.652,175.600 150.246,177.800 152.359 C 188.040 162.191,193.167 167.331,196.668 171.274 L 200.462 175.548 202.930 172.674 C 207.080 167.840,214.312 160.555,220.200 155.279 C 227.616 148.634,231.652 144.717,234.087 141.800 C 235.189 140.480,237.650 137.780,239.557 135.800 C 248.302 126.716,248.465 123.518,240.600 115.240 C 232.232 106.432,224.507 98.922,219.795 95.014 C 212.034 88.578,205.169 80.548,202.426 74.700 C 200.907 71.462,200.867 71.454,199.600 74.106 M103.200 122.758 C 103.200 122.956,103.861 124.509,104.669 126.211 C 106.586 130.247,106.750 133.042,105.634 142.662 C 103.133 164.231,104.000 180.001,108.280 190.751 C 110.867 197.250,117.886 205.521,123.506 208.695 C 126.601 210.443,126.594 210.455,124.588 206.684 C 114.049 186.873,114.444 160.412,125.629 136.849 C 126.713 134.565,127.600 132.633,127.600 132.554 C 127.600 132.352,122.859 129.983,122.547 130.030 C 122.405 130.051,122.179 129.908,122.045 129.713 C 121.910 129.518,120.810 128.944,119.600 128.437 C 118.390 127.931,116.860 127.285,116.200 127.002 C 109.325 124.051,103.200 122.052,103.200 122.758 M296.800 122.675 C 288.362 125.661,274.400 131.863,274.400 132.626 C 274.400 132.877,275.204 134.803,276.186 136.905 C 287.383 160.866,287.757 186.969,277.187 206.700 C 276.332 208.295,275.721 209.600,275.828 209.600 C 278.005 209.600,285.108 203.753,288.099 199.500 C 288.988 198.235,289.870 197.200,290.058 197.200 C 290.246 197.200,290.400 197.013,290.400 196.784 C 290.400 196.555,290.762 195.878,291.205 195.279 C 296.848 187.647,298.846 166.720,296.122 143.800 C 294.940 133.855,295.114 129.938,296.900 126.324 C 298.824 122.431,298.811 121.964,296.800 122.675 M138.960 143.506 C 137.906 144.210,136.262 149.070,134.057 158.000 C 129.900 174.841,129.335 195.846,132.846 203.000 C 136.146 209.722,143.079 217.585,150.734 223.287 C 153.740 225.526,157.976 228.898,160.146 230.779 C 162.316 232.661,164.746 234.767,165.546 235.461 C 167.325 237.003,167.600 236.872,167.601 234.476 C 167.603 232.434,168.547 226.590,169.391 223.402 C 170.869 217.822,178.626 199.449,179.948 198.400 C 180.754 197.760,186.400 186.560,186.400 185.601 C 186.400 183.588,183.420 179.804,175.498 171.762 C 173.352 169.583,171.372 167.618,171.098 167.395 C 170.824 167.172,168.530 165.189,166.000 162.987 C 159.915 157.692,155.492 154.068,152.800 152.172 C 151.590 151.320,150.510 150.527,150.400 150.409 C 150.290 150.292,149.480 149.666,148.600 149.019 C 147.720 148.372,146.910 147.741,146.800 147.617 C 146.264 147.015,140.266 143.201,139.863 143.206 C 139.608 143.209,139.202 143.344,138.960 143.506 M259.800 144.188 C 259.140 144.729,258.450 145.178,258.267 145.186 C 258.084 145.194,257.165 145.831,256.225 146.601 C 255.284 147.372,253.963 148.407,253.289 148.901 C 234.712 162.523,215.200 181.258,215.200 185.472 C 215.200 186.345,218.853 193.840,219.551 194.400 C 220.236 194.950,225.753 206.066,227.789 211.000 C 228.606 212.980,229.460 214.825,229.686 215.100 C 229.913 215.375,229.964 215.600,229.800 215.600 C 229.636 215.600,229.685 215.825,229.908 216.100 C 231.111 217.582,234.000 230.258,234.000 234.052 C 234.000 236.129,234.602 236.603,235.643 235.348 C 236.448 234.378,243.844 228.035,246.600 225.951 C 247.920 224.953,250.620 222.949,252.600 221.497 C 261.407 215.042,269.145 205.210,270.402 198.878 C 270.607 197.845,270.869 196.550,270.985 196.000 C 271.835 191.962,271.347 172.200,270.397 172.200 C 270.362 172.200,270.279 171.840,270.213 171.400 C 268.754 161.702,265.435 148.405,263.548 144.700 C 262.630 142.898,261.553 142.750,259.800 144.188 M47.316 206.276 C 46.887 207.394,49.093 225.683,49.687 225.934 C 49.862 226.008,49.891 226.252,49.753 226.477 C 49.614 226.701,49.694 227.541,49.932 228.343 C 50.169 229.144,50.926 232.723,51.613 236.295 C 53.378 245.464,55.733 254.395,57.390 258.200 C 57.677 258.860,58.316 260.525,58.810 261.900 C 59.303 263.275,59.863 264.400,60.054 264.400 C 60.244 264.400,60.400 264.647,60.400 264.949 C 60.400 265.688,65.175 275.190,67.078 278.238 C 71.961 286.058,75.969 291.359,81.200 296.910 C 82.630 298.428,84.053 300.059,84.363 300.535 C 84.673 301.011,86.023 302.377,87.363 303.571 C 88.703 304.765,91.383 307.188,93.318 308.955 C 95.253 310.722,97.246 312.445,97.747 312.784 C 98.247 313.123,98.914 313.635,99.228 313.923 C 99.805 314.451,106.494 319.288,108.185 320.400 C 108.687 320.730,110.386 321.855,111.961 322.900 C 113.536 323.945,114.913 324.800,115.020 324.800 C 115.128 324.800,115.887 325.223,116.708 325.740 C 117.529 326.256,119.550 327.371,121.200 328.216 C 122.850 329.062,124.290 329.874,124.400 330.022 C 125.005 330.836,138.681 336.866,143.800 338.576 C 145.560 339.164,148.080 340.080,149.400 340.612 C 154.719 342.756,161.140 344.180,158.735 342.682 C 158.221 342.362,155.100 340.425,151.800 338.378 C 107.049 310.617,80.168 266.052,78.955 217.608 C 78.842 213.103,78.700 209.366,78.639 209.305 C 78.487 209.154,76.885 208.963,66.000 207.802 C 60.830 207.250,55.070 206.529,53.200 206.200 C 48.778 205.421,47.638 205.436,47.316 206.276 M349.200 206.025 C 346.522 206.509,335.425 207.904,328.639 208.609 C 325.360 208.950,322.552 209.306,322.399 209.400 C 322.247 209.495,322.015 213.493,321.885 218.286 C 320.577 266.477,292.743 311.936,247.865 339.175 C 242.413 342.484,240.952 343.600,242.068 343.600 C 243.149 343.600,251.998 340.961,254.200 339.982 C 254.640 339.787,257.045 338.885,259.545 337.978 C 264.639 336.131,272.695 332.592,275.531 330.955 C 276.559 330.362,279.361 328.822,281.757 327.532 C 285.838 325.336,293.154 320.912,293.600 320.369 C 293.710 320.235,294.790 319.435,296.000 318.590 C 301.197 314.962,302.306 314.155,304.199 312.620 C 305.298 311.729,306.613 310.593,307.122 310.095 C 307.630 309.598,309.715 307.763,311.755 306.018 C 313.795 304.273,316.340 301.800,317.411 300.523 C 318.482 299.245,320.162 297.390,321.145 296.400 C 322.127 295.410,324.476 292.530,326.364 290.000 C 328.252 287.470,329.899 285.310,330.025 285.200 C 331.035 284.314,336.873 274.621,338.585 270.984 C 339.202 269.673,339.828 268.510,339.975 268.400 C 341.279 267.423,346.060 253.656,348.227 244.635 C 349.025 241.316,349.777 238.330,349.899 238.000 C 350.178 237.244,350.179 237.242,350.922 233.400 C 352.375 225.892,354.400 210.829,354.400 207.529 L 354.400 205.600 352.700 205.650 C 351.765 205.678,350.190 205.847,349.200 206.025 M110.460 224.700 C 109.375 226.761,117.795 261.043,119.730 262.445 C 119.916 262.579,120.048 262.807,120.023 262.950 C 119.853 263.933,127.629 277.835,129.629 280.124 C 129.858 280.386,131.048 281.950,132.273 283.600 C 137.197 290.231,140.324 293.794,148.400 301.980 C 154.830 308.498,164.633 316.128,170.300 319.026 C 171.015 319.392,171.600 319.851,171.600 320.046 C 171.600 320.241,171.797 320.400,172.038 320.400 C 172.279 320.400,172.954 320.737,173.538 321.149 C 175.253 322.359,190.019 329.715,190.256 329.477 C 190.375 329.358,189.310 327.852,187.889 326.130 C 180.140 316.746,173.168 303.366,169.789 291.399 C 165.991 277.945,163.863 266.995,163.356 258.293 C 163.056 253.140,162.879 252.745,160.000 250.773 C 159.230 250.246,158.150 249.335,157.600 248.750 C 154.895 245.871,136.502 234.411,130.000 231.552 C 128.350 230.827,126.868 230.046,126.706 229.817 C 126.521 229.554,126.408 229.547,126.400 229.800 C 126.392 230.067,126.290 230.067,126.094 229.800 C 125.387 228.838,112.929 224.016,111.114 224.002 C 110.957 224.001,110.662 224.315,110.460 224.700 M288.600 224.446 C 285.970 225.319,281.709 226.921,280.104 227.640 C 279.172 228.058,278.137 228.400,277.804 228.400 C 277.472 228.400,277.200 228.580,277.200 228.800 C 277.200 229.020,276.972 229.200,276.694 229.200 C 275.977 229.200,264.757 234.928,261.346 237.036 C 259.776 238.006,258.300 238.800,258.065 238.800 C 257.831 238.800,257.496 239.038,257.320 239.329 C 257.144 239.620,255.200 241.012,253.000 242.422 C 250.800 243.832,248.940 245.124,248.867 245.293 C 248.793 245.462,248.478 245.600,248.167 245.600 C 247.855 245.600,247.600 245.741,247.600 245.914 C 247.600 246.086,247.105 246.528,246.500 246.894 C 245.895 247.261,244.770 248.117,244.000 248.797 C 243.230 249.476,241.746 250.691,240.703 251.496 C 238.583 253.132,238.573 253.161,238.195 259.400 C 236.782 282.710,225.250 312.410,211.639 327.797 C 210.515 329.068,210.361 329.420,210.884 329.521 C 211.882 329.713,224.613 323.451,229.265 320.480 C 229.850 320.106,231.200 319.278,232.265 318.639 C 241.278 313.232,255.627 300.722,262.821 292.000 C 272.019 280.848,276.514 274.025,281.926 263.000 C 282.804 261.211,285.750 252.643,286.189 250.600 C 286.283 250.160,286.721 248.341,287.161 246.557 C 287.601 244.774,288.340 241.354,288.803 238.957 C 289.266 236.561,289.752 234.330,289.884 234.000 C 290.015 233.670,290.146 233.220,290.175 233.000 C 290.203 232.780,290.550 231.224,290.944 229.543 C 292.122 224.521,291.626 223.443,288.600 224.446 " stroke="none" fill="#044484" fill-rule="evenodd"></path><path id="path2" d="M321.742 215.800 C 321.741 217.780,321.808 218.640,321.892 217.712 C 321.976 216.784,321.977 215.164,321.895 214.112 C 321.812 213.060,321.743 213.820,321.742 215.800 M143.000 217.200 C 144.083 218.300,145.060 219.200,145.170 219.200 C 145.280 219.200,144.483 218.300,143.400 217.200 C 142.317 216.100,141.340 215.200,141.230 215.200 C 141.120 215.200,141.917 216.100,143.000 217.200 M278.581 314.900 L 277.000 316.600 278.700 315.019 C 280.281 313.548,280.584 313.200,280.281 313.200 C 280.216 313.200,279.451 313.965,278.581 314.900 " stroke="none" fill="#042444" fill-rule="evenodd"></path><path id="path3" d="M181.400 156.400 C 182.259 157.280,183.052 158.000,183.162 158.000 C 183.272 158.000,182.659 157.280,181.800 156.400 C 180.941 155.520,180.148 154.800,180.038 154.800 C 179.928 154.800,180.541 155.520,181.400 156.400 M188.400 163.000 C 189.817 164.430,191.067 165.600,191.177 165.600 C 191.287 165.600,190.217 164.430,188.800 163.000 C 187.383 161.570,186.133 160.400,186.023 160.400 C 185.913 160.400,186.983 161.570,188.400 163.000 M206.975 168.500 L 205.800 169.800 207.100 168.625 C 207.815 167.979,208.400 167.394,208.400 167.325 C 208.400 167.016,208.070 167.288,206.975 168.500 M194.800 169.800 C 195.546 170.570,196.247 171.200,196.357 171.200 C 196.467 171.200,195.946 170.570,195.200 169.800 C 194.454 169.030,193.753 168.400,193.643 168.400 C 193.533 168.400,194.054 169.030,194.800 169.800 M284.531 175.800 C 284.533 177.340,284.605 177.921,284.692 177.091 C 284.779 176.261,284.777 175.001,284.689 174.291 C 284.600 173.581,284.529 174.260,284.531 175.800 M259.986 215.500 L 257.800 217.800 260.100 215.614 C 262.237 213.582,262.583 213.200,262.286 213.200 C 262.224 213.200,261.189 214.235,259.986 215.500 " stroke="none" fill="#04243b" fill-rule="evenodd"></path><path id="path4" d="M183.400 158.000 C 184.259 158.880,185.052 159.600,185.162 159.600 C 185.272 159.600,184.659 158.880,183.800 158.000 C 182.941 157.120,182.148 156.400,182.038 156.400 C 181.928 156.400,182.541 157.120,183.400 158.000 M216.000 159.000 C 215.028 159.990,214.323 160.800,214.433 160.800 C 214.543 160.800,215.428 159.990,216.400 159.000 C 217.372 158.010,218.077 157.200,217.967 157.200 C 217.857 157.200,216.972 158.010,216.000 159.000 M208.185 166.900 L 206.200 169.000 208.300 167.015 C 210.251 165.171,210.583 164.800,210.285 164.800 C 210.222 164.800,209.277 165.745,208.185 166.900 M117.293 166.800 C 117.293 167.570,117.375 167.885,117.476 167.500 C 117.576 167.115,117.576 166.485,117.476 166.100 C 117.375 165.715,117.293 166.030,117.293 166.800 M193.183 167.700 C 194.164 168.745,195.019 169.600,195.083 169.600 C 195.384 169.600,195.066 169.241,193.300 167.583 L 191.400 165.800 193.183 167.700 M284.509 169.200 C 284.509 170.190,284.587 170.595,284.682 170.100 C 284.778 169.605,284.778 168.795,284.682 168.300 C 284.587 167.805,284.509 168.210,284.509 169.200 M116.954 175.600 C 116.954 178.350,117.018 179.475,117.096 178.100 C 117.174 176.725,117.174 174.475,117.096 173.100 C 117.018 171.725,116.954 172.850,116.954 175.600 M284.501 181.800 C 284.505 182.680,284.587 182.993,284.683 182.495 C 284.779 181.998,284.775 181.278,284.675 180.895 C 284.575 180.513,284.496 180.920,284.501 181.800 M78.959 215.600 C 78.959 218.790,79.021 220.095,79.097 218.500 C 79.173 216.905,79.173 214.295,79.097 212.700 C 79.021 211.105,78.959 212.410,78.959 215.600 M321.693 211.200 C 321.693 211.970,321.775 212.285,321.876 211.900 C 321.976 211.515,321.976 210.885,321.876 210.500 C 321.775 210.115,321.693 210.430,321.693 211.200 M260.778 214.300 L 259.400 215.800 260.900 214.422 C 262.296 213.138,262.584 212.800,262.278 212.800 C 262.212 212.800,261.537 213.475,260.778 214.300 M257.578 217.500 L 256.200 219.000 257.700 217.622 C 259.096 216.338,259.384 216.000,259.078 216.000 C 259.012 216.000,258.337 216.675,257.578 217.500 M321.714 221.000 C 321.717 222.100,321.795 222.503,321.887 221.895 C 321.979 221.286,321.977 220.386,321.882 219.895 C 321.787 219.403,321.711 219.900,321.714 221.000 M85.200 301.725 C 85.200 301.794,85.785 302.379,86.500 303.025 L 87.800 304.200 86.625 302.900 C 85.530 301.688,85.200 301.416,85.200 301.725 M281.375 312.100 L 280.200 313.400 281.500 312.225 C 282.215 311.579,282.800 310.994,282.800 310.925 C 282.800 310.616,282.470 310.888,281.375 312.100 M120.383 313.300 C 122.041 315.066,122.400 315.384,122.400 315.083 C 122.400 315.019,121.545 314.164,120.500 313.183 L 118.600 311.400 120.383 313.300 M125.000 318.000 C 125.859 318.880,126.652 319.600,126.762 319.600 C 126.872 319.600,126.259 318.880,125.400 318.000 C 124.541 317.120,123.748 316.400,123.638 316.400 C 123.528 316.400,124.141 317.120,125.000 318.000 " stroke="none" fill="#042d54" fill-rule="evenodd"></path></g></svg>